<?xml version="1.0" encoding="UTF-8"?>
<svg version="1.1" xmlns="http://www.w3.org/2000/svg" width="352" height="220">
<path d="M0 0 C116.16 0 232.32 0 352 0 C352 72.6 352 145.2 352 220 C235.84 220 119.68 220 0 220 C0 147.4 0 74.8 0 0 Z " fill="#FCFCFC" transform="translate(0,0)"/>
<path d="M0 0 C1.97119141 -0.34057617 1.97119141 -0.34057617 4.3515625 -0.29296875 C5.62773437 -0.2784668 5.62773437 -0.2784668 6.9296875 -0.26367188 C7.81914062 -0.23853516 8.70859375 -0.21339844 9.625 -0.1875 C10.97078125 -0.16719727 10.97078125 -0.16719727 12.34375 -0.14648438 C14.56309789 -0.11106925 16.78125188 -0.06168461 19 0 C18.37320932 3.38356031 17.53167192 5.93665616 16 9 C15.32502722 11.33094415 14.65971836 13.66469262 14 16 C11.10605914 25.20983984 7.87289494 34.15002305 4 43 C3.34 43 2.68 43 2 43 C1.9175 43.78375 1.835 44.5675 1.75 45.375 C0.75373992 50.19025707 -1.10521388 54.47653173 -3 59 C-3.69101652 60.70691394 -4.37859044 62.41522611 -5.0625 64.125 C-5.39507812 64.95515625 -5.72765625 65.7853125 -6.0703125 66.640625 C-6.8858554 68.71032211 -7.66969579 70.78726271 -8.4375 72.875 C-9.65586039 76.16786592 -11.0028113 79.39330324 -12.375 82.625 C-14.23194743 87.03941994 -15.91395508 91.48126824 -17.5 96 C-19.41301537 101.45028906 -21.51023991 106.77888087 -23.7890625 112.0859375 C-24.99341737 114.98415922 -26.10359324 117.9038468 -27.19677734 120.84521484 C-28.60246179 124.61620905 -30.05022603 128.37078182 -31.5 132.125 C-31.94279297 133.28322266 -31.94279297 133.28322266 -32.39453125 134.46484375 C-34.05858647 138.76792928 -35.85522261 142.90661389 -38 147 C-40.79192205 147.05380578 -43.5828141 147.09357669 -46.375 147.125 C-47.56609375 147.15013672 -47.56609375 147.15013672 -48.78125 147.17578125 C-50.85492015 147.19335473 -52.92883241 147.10335168 -55 147 C-55.66 146.34 -56.32 145.68 -57 145 C-55.01819783 138.72429313 -52.68033778 132.63883936 -50.20605469 126.54443359 C-48.26970037 121.74738979 -46.55731481 116.93149689 -45 112 C-44.34 112 -43.68 112 -43 112 C-42.89365234 110.63101563 -42.89365234 110.63101563 -42.78515625 109.234375 C-41.97226757 103.59646186 -39.59715208 98.48225341 -37.4375 93.25 C-36.98785889 92.14325928 -36.53821777 91.03651855 -36.07495117 89.89624023 C-33.05582439 82.48973616 -29.95996902 75.11621757 -26.83203125 67.75512695 C-23.68180118 60.31557807 -20.76076404 52.7939822 -17.86767578 45.25146484 C-16.98149764 42.95198966 -16.08427697 40.65711104 -15.18359375 38.36328125 C-11.62600031 29.29552362 -8.20879546 20.19756117 -5 11 C-4.34 11 -3.68 11 -3 11 C-2.814375 9.1128125 -2.814375 9.1128125 -2.625 7.1875 C-2.30131941 3.89674737 -1.93395001 2.90092502 0 0 Z " fill="#06FAFA" transform="translate(195,37)"/>
<path d="M0 0 C0 5.61 0 11.22 0 17 C-2.01480469 17.66386719 -4.02960938 18.32773438 -6.10546875 19.01171875 C-8.10498711 19.67299247 -10.1041438 20.335349 -12.10327148 20.99780273 C-13.46911009 21.4497758 -14.83530889 21.90066218 -16.2019043 22.3503418 C-24.37706877 25.04132091 -32.43695398 27.86525227 -40.41918945 31.09301758 C-43 32 -43 32 -46 32 C-46 32.66 -46 33.32 -46 34 C-44.906875 34.2475 -43.81375 34.495 -42.6875 34.75 C-38.37447117 35.82825721 -34.27794735 37.31122468 -30.1171875 38.8671875 C-26.62369453 40.13675262 -23.09676948 41.28843601 -19.5625 42.4375 C-12.88478115 44.6218803 -6.44913456 47.21333692 0 50 C0 55.28 0 60.56 0 66 C-3.73890754 65.25221849 -6.85579778 64.42872153 -10.39453125 63.14453125 C-11.42457275 62.77239502 -12.45461426 62.40025879 -13.51586914 62.0168457 C-14.60375732 61.61941162 -15.69164551 61.22197754 -16.8125 60.8125 C-17.93454834 60.40539795 -19.05659668 59.9982959 -20.21264648 59.57885742 C-29.55294938 56.18256673 -38.86188425 52.70895619 -48.15380859 49.18261719 C-50.35187641 48.3491491 -52.55092125 47.51829634 -54.75 46.6875 C-55.41845947 46.43266846 -56.08691895 46.17783691 -56.77563477 45.9152832 C-59.82056613 44.76544624 -62.81385994 43.6838937 -66 43 C-66 42.34 -66 41.68 -66 41 C-66.66 41 -67.32 41 -68 41 C-68 35.39 -68 29.78 -68 24 C-66.27281738 23.4330542 -64.54563477 22.8661084 -62.76611328 22.28198242 C-56.37293029 20.14996572 -50.0537318 17.84945874 -43.7421875 15.48828125 C-42.63191193 15.07458786 -41.52163635 14.66089447 -40.37771606 14.23466492 C-38.0564559 13.36926194 -35.73556699 12.50286255 -33.41503906 11.63549805 C-29.85052689 10.30335381 -26.28473293 8.97468594 -22.71875 7.64648438 C-20.45565381 6.80228532 -18.19263029 5.95789141 -15.9296875 5.11328125 C-14.86209198 4.71538895 -13.79449646 4.31749664 -12.69454956 3.907547 C-11.71237457 3.54013901 -10.73019958 3.17273102 -9.71826172 2.79418945 C-8.85288788 2.47094193 -7.98751404 2.1476944 -7.09591675 1.81465149 C-2.42722284 0 -2.42722284 0 0 0 Z " fill="#06FAFA" transform="translate(128,77)"/>
<path d="M0 0 C4.98735709 0.71247958 8.14698484 1.23456103 12.59765625 3.00390625 C13.63583496 3.41108887 14.67401367 3.81827148 15.74365234 4.23779297 C16.83887207 4.67494629 17.9340918 5.11209961 19.0625 5.5625 C21.38869382 6.47426291 23.71552848 7.38439236 26.04296875 8.29296875 C27.20747559 8.74849121 28.37198242 9.20401367 29.57177734 9.67333984 C34.64965706 11.63838744 39.75620493 13.51954845 44.875 15.375 C45.77637695 15.70193848 46.67775391 16.02887695 47.60644531 16.36572266 C53.38949372 18.44990826 59.1924737 20.44496667 65.05078125 22.30859375 C67 23 67 23 68 24 C68.07325168 26.86267567 68.09238205 29.700719 68.0625 32.5625 C68.05798828 33.36880859 68.05347656 34.17511719 68.04882812 35.00585938 C68.03700518 37.00393756 68.01906914 39.00197783 68 41 C67.01 41.31453125 66.02 41.6290625 65 41.953125 C58.72525713 43.97713302 52.70098425 45.96656031 46.87890625 49.09765625 C43.10359989 50.91074517 39.02478861 51.8867606 35 53 C29.0473646 54.68750723 23.31712473 56.6058289 17.58984375 58.94921875 C14.78171994 60.0885631 11.96174886 61.18386464 9.125 62.25 C8.24070313 62.58515625 7.35640625 62.9203125 6.4453125 63.265625 C4 64 4 64 0 64 C-0.13501894 61.56065775 -0.23403897 59.12875896 -0.3125 56.6875 C-0.35439453 55.99720703 -0.39628906 55.30691406 -0.43945312 54.59570312 C-0.48828125 52.57421875 -0.48828125 52.57421875 0 49 C3.40297586 46.0120212 7.72994915 44.94212448 12 43.5625 C12.98141968 43.24273193 12.98141968 43.24273193 13.98266602 42.91650391 C19.33908383 41.18128074 24.72608939 39.54685538 30.11328125 37.91015625 C33.80487221 36.74623109 37.3930417 35.40270601 41 34 C41.99 33.67 42.98 33.34 44 33 C44.495 32.01 44.495 32.01 45 31 C44.443125 30.89042969 43.88625 30.78085938 43.3125 30.66796875 C42.549375 30.50941406 41.78625 30.35085937 41 30.1875 C40.2575 30.03667969 39.515 29.88585937 38.75 29.73046875 C35.82913659 28.95461441 33.04996087 27.92773767 30.23046875 26.8449707 C26.18395137 25.31202449 22.08779011 23.91833929 18 22.5 C11.9696904 20.4076653 5.96764184 18.26549366 0 16 C0 10.72 0 5.44 0 0 Z " fill="#06FAFA" transform="translate(225,78)"/>
<path d="M0 0 C5.85518704 0.98357885 10.74055493 2.14160594 16 5 C18.64675121 6.06256436 21.31764481 7.02880243 24 8 C24 13.28 24 18.56 24 24 C20.19577275 23.23915455 17.00216131 22.37915789 13.39453125 21.07421875 C11.79448242 20.49704102 11.79448242 20.49704102 10.16210938 19.90820312 C9.05673828 19.50537109 7.95136719 19.10253906 6.8125 18.6875 C5.72646484 18.29626953 4.64042969 17.90503906 3.52148438 17.50195312 C-3.03853592 15.12616199 -9.54191961 12.64041544 -16 10 C-12.24790052 8.88729477 -10.64431827 9.29836282 -7.0625 10.9375 C-3.49250933 12.56523918 -0.93527848 13.23231519 3 13 C3 12.34 3 11.68 3 11 C4.65 11 6.3 11 8 11 C7.505 10.38125 7.01 9.7625 6.5 9.125 C5 7 5 7 5 5 C5.99 5 6.98 5 8 5 C8 4.34 8 3.68 8 3 C6.865625 2.87625 5.73125 2.7525 4.5625 2.625 C3.386875 2.41875 2.21125 2.2125 1 2 C0.67 1.34 0.34 0.68 0 0 Z " fill="#12F6F6" transform="translate(104,119)"/>
<path d="M0 0 C10.125 0 10.125 0 15 3 C15 3.66 15 4.32 15 5 C17.64 5 20.28 5 23 5 C23 5.99 23 6.98 23 8 C29.435 7.505 29.435 7.505 36 7 C35.01 7.33 34.02 7.66 33 8 C33 8.99 33 9.98 33 11 C34.5778125 10.87625 34.5778125 10.87625 36.1875 10.75 C40 11 40 11 42.3125 12.9375 C46.23546314 15.94814613 50.17213636 15.81251015 55 16 C55 17.32 55 18.64 55 20 C56.32 20.33 57.64 20.66 59 21 C57 22 57 22 53.8671875 20.99609375 C52.53355123 20.48407116 51.203017 19.96392538 49.875 19.4375 C48.410224 18.87222025 46.94537838 18.30712087 45.48046875 17.7421875 C44.35777588 17.30471191 44.35777588 17.30471191 43.21240234 16.85839844 C39.88093649 15.56581027 36.53479504 14.31339812 33.1875 13.0625 C32.54506348 12.82176758 31.90262695 12.58103516 31.24072266 12.33300781 C29.16096031 11.55405153 27.08060672 10.77669813 25 10 C24.17902832 9.69352539 23.35805664 9.38705078 22.51220703 9.07128906 C19.92577778 8.1073843 17.3380831 7.14695436 14.75 6.1875 C13.93942139 5.88529541 13.12884277 5.58309082 12.29370117 5.27172852 C11.53162354 4.98998779 10.7695459 4.70824707 9.984375 4.41796875 C9.31116211 4.16813232 8.63794922 3.9182959 7.94433594 3.66088867 C5.99644969 2.99879323 3.99590904 2.49897726 2 2 C2 7.28 2 12.56 2 18 C1.34 18 0.68 18 0 18 C0 12.06 0 6.12 0 0 Z " fill="#C5FDFC" transform="translate(223,76)"/>
<path d="M0 0 C0.33 0 0.66 0 1 0 C1.22114415 2.79119779 1.42743301 5.5821212 1.625 8.375 C1.68945312 9.1690625 1.75390625 9.963125 1.8203125 10.78125 C1.96058587 12.85028224 1.98758237 14.92625536 2 17 C-0.36300349 19.36300349 -1.5798498 19.51433444 -4.8125 20.125 C-5.66457031 20.29257813 -6.51664063 20.46015625 -7.39453125 20.6328125 C-9.96843811 20.995552 -12.40461588 21.06523407 -15 21 C-15.33 22.32 -15.66 23.64 -16 25 C-15.34 25 -14.68 25 -14 25 C-13.67 25.99 -13.34 26.98 -13 28 C-16.75 29.125 -16.75 29.125 -19 28 C-19.33 28.99 -19.66 29.98 -20 31 C-22.70879335 32.35439668 -25.00933268 32.06501451 -28 32 C-28 30.35 -28 28.7 -28 27 C-28.9075 27.350625 -29.815 27.70125 -30.75 28.0625 C-34.00591313 29.00170571 -34.92749994 28.95514676 -38 28 C-16.944851 20.2771557 -16.944851 20.2771557 -8.875 17.5 C-8.00617188 17.2009375 -7.13734375 16.901875 -6.2421875 16.59375 C-4 16 -4 16 0 16 C0 10.72 0 5.44 0 0 Z " fill="#F6FBFA" transform="translate(128,78)"/>
<path d="M0 0 C0.2475 0.969375 0.495 1.93875 0.75 2.9375 C1.36875 4.4534375 1.36875 4.4534375 2 6 C4.03243548 6.96877057 4.03243548 6.96877057 6 7 C6.33 6.01 6.66 5.02 7 4 C9.475 4.495 9.475 4.495 12 5 C12 5.66 12 6.32 12 7 C10.35 7 8.7 7 7 7 C7 7.66 7 8.32 7 9 C2.49646738 10.75747614 -1.17639811 11.19294408 -6 11 C-6 11.66 -6 12.32 -6 13 C-7.65 13 -9.3 13 -11 13 C-11 9.37 -11 5.74 -11 2 C-7.12315913 0.80712589 -4.08378077 0 0 0 Z " fill="#06FAF9" transform="translate(238,126)"/>
<path d="M0 0 C0 5.61 0 11.22 0 17 C-3.43402832 18.19847289 -6.87158697 19.38410513 -10.3125 20.5625 C-11.77719727 21.07586914 -11.77719727 21.07586914 -13.27148438 21.59960938 C-14.20927734 21.91865234 -15.14707031 22.23769531 -16.11328125 22.56640625 C-16.97735596 22.86490479 -17.84143066 23.16340332 -18.73168945 23.47094727 C-21 24 -21 24 -24 23 C-22.625 21.0625 -22.625 21.0625 -20 19 C-17.46572632 18.58118243 -14.97346877 18.43225516 -12.41015625 18.28125 C-9.3837171 17.92808368 -7.45155691 16.76205653 -5 15 C-4.34 15 -3.68 15 -3 15 C-3.33 13.68 -3.66 12.36 -4 11 C-3.01 11 -2.02 11 -1 11 C-1 8.03 -1 5.06 -1 2 C-2.9490625 2.680625 -2.9490625 2.680625 -4.9375 3.375 C-5.66839844 3.63023438 -6.39929688 3.88546875 -7.15234375 4.1484375 C-9.18682116 4.85271413 -9.18682116 4.85271413 -10 7 C-11.32 7 -12.64 7 -14 7 C-14 7.66 -14 8.32 -14 9 C-12.68 9.33 -11.36 9.66 -10 10 C-11 11 -11 11 -13.5625 11.0625 C-14.366875 11.041875 -15.17125 11.02125 -16 11 C-16 10.34 -16 9.68 -16 9 C-16.99 9.495 -16.99 9.495 -18 10 C-19.54023996 10.06950541 -21.08334988 10.08452357 -22.625 10.0625 C-23.85089844 10.04896484 -23.85089844 10.04896484 -25.1015625 10.03515625 C-26.04128906 10.01775391 -26.04128906 10.01775391 -27 10 C-22.78697803 7.19131869 -18.21996503 5.66315275 -13.5 3.875 C-12.05560547 3.31619141 -12.05560547 3.31619141 -10.58203125 2.74609375 C-9.65777344 2.39417969 -8.73351562 2.04226562 -7.78125 1.6796875 C-6.93626953 1.35726074 -6.09128906 1.03483398 -5.22070312 0.70263672 C-3 0 -3 0 0 0 Z " fill="#34EEEB" transform="translate(128,77)"/>
<path d="M0 0 C0.44926609 5.3911931 -0.44690508 8.41770039 -3.04296875 13.1328125 C-4.19179869 15.37420316 -4.68848327 17.50786612 -5 20 C-5.66 20 -6.32 20 -7 20 C-7.103125 20.78375 -7.20625 21.5675 -7.3125 22.375 C-7.88840072 25.41156744 -8.55896366 28.33460822 -9.375 31.3125 C-9.60960937 32.17488281 -9.84421875 33.03726563 -10.0859375 33.92578125 C-10.38757813 34.61027344 -10.68921875 35.29476562 -11 36 C-12.485 36.495 -12.485 36.495 -14 37 C-12.38004492 31.12152664 -10.46844946 25.61795906 -7.90625 20.0859375 C-6.62619381 17.13960128 -5.84427256 14.09566604 -5 11 C-4.01 8.36 -3.02 5.72 -2 3 C-8.27 3 -14.54 3 -21 3 C-21.99 6.63 -22.98 10.26 -24 14 C-24.66 14 -25.32 14 -26 14 C-26.33 16.31 -26.66 18.62 -27 21 C-28.3804313 17.20381393 -27.6482659 14.30796924 -26.75 10.4375 C-26.49734375 9.30183594 -26.2446875 8.16617188 -25.984375 6.99609375 C-24.98093507 3.941973 -24.48173676 2.91609281 -22 1 C-19.74755859 0.56762695 -19.74755859 0.56762695 -17.1484375 0.48828125 C-16.21515625 0.45283203 -15.281875 0.41738281 -14.3203125 0.38085938 C-13.34835938 0.35830078 -12.37640625 0.33574219 -11.375 0.3125 C-10.3953125 0.27833984 -9.415625 0.24417969 -8.40625 0.20898438 C-2.24760842 0 -2.24760842 0 0 0 Z " fill="#BFFBFA" transform="translate(216,34)"/>
<path d="M0 0 C0.6875 1.625 0.6875 1.625 1 4 C0.03523618 6.01723344 -0.96838392 8.01612292 -2 10 C-2.70758326 13.2366963 -2.70758326 13.2366963 -3 16 C-3.66 16 -4.32 16 -5 16 C-5.103125 16.825 -5.20625 17.65 -5.3125 18.5 C-6.11646056 22.59289012 -7.46352158 26.12540225 -9 30 C-9.66 30 -10.32 30 -11 30 C-11 32.64 -11 35.28 -11 38 C-11.639375 38.20625 -12.27875 38.4125 -12.9375 38.625 C-13.618125 39.07875 -14.29875 39.5325 -15 40 C-15.39764263 41.98821313 -15.71325582 43.99279077 -16 46 C-16.94442731 48.58089186 -17.99048474 51.1025412 -19.0625 53.6328125 C-19.9007787 55.74946621 -20.50914845 57.78094193 -21 60 C-21.66 60 -22.32 60 -23 60 C-23 61.32 -23 62.64 -23 64 C-23.66 64 -24.32 64 -25 64 C-23.125 56.375 -23.125 56.375 -22 53 C-21.34 53 -20.68 53 -20 53 C-19.92910156 52.08734375 -19.85820312 51.1746875 -19.78515625 50.234375 C-18.97227554 44.59651713 -16.59734449 39.48213665 -14.4375 34.25 C-13.76956421 32.60729126 -13.76956421 32.60729126 -13.08813477 30.93139648 C-2.55852281 5.11704562 -2.55852281 5.11704562 0 0 Z " fill="#31EEEB" transform="translate(172,96)"/>
<path d="M0 0 C1.32 0 2.64 0 4 0 C4 0.99 4 1.98 4 3 C4.68707031 2.77183594 5.37414062 2.54367188 6.08203125 2.30859375 C6.98308594 2.02113281 7.88414063 1.73367187 8.8125 1.4375 C9.70582031 1.14746094 10.59914062 0.85742188 11.51953125 0.55859375 C14 0 14 0 17 1 C11.37768283 3.12073195 5.75429016 5.23857741 0.12988281 7.35375977 C-1.78317595 8.07367057 -3.69593885 8.79436812 -5.60839844 9.51586914 C-8.35794845 10.55301768 -11.10855134 11.58732883 -13.859375 12.62109375 C-14.71368103 12.94403915 -15.56798706 13.26698456 -16.44818115 13.59971619 C-17.64897308 14.05006981 -17.64897308 14.05006981 -18.87402344 14.50952148 C-19.57573669 14.77377426 -20.27744995 15.03802704 -21.00042725 15.31028748 C-22.98255301 15.99398201 -24.95913067 16.52338841 -27 17 C-26.505 15.515 -26.505 15.515 -26 14 C-25.01 14 -24.02 14 -23 14 C-22.80664062 13.35546875 -22.61328125 12.7109375 -22.4140625 12.046875 C-21 10 -21 10 -17.9609375 9.390625 C-16.77757813 9.34421875 -15.59421875 9.2978125 -14.375 9.25 C-13.18648437 9.19328125 -11.99796875 9.1365625 -10.7734375 9.078125 C-9.40058594 9.03945312 -9.40058594 9.03945312 -8 9 C-8 7.68 -8 6.36 -8 5 C-5.03 5 -2.06 5 1 5 C0.67 3.35 0.34 1.7 0 0 Z " fill="#D2FDFC" transform="translate(95,82)"/>
<path d="M0 0 C0.66 0 1.32 0 2 0 C2 5.28 2 10.56 2 16 C2.66 16 3.32 16 4 16 C4 16.66 4 17.32 4 18 C4.99128906 18.10183594 5.98257813 18.20367187 7.00390625 18.30859375 C11.26871434 18.91785205 14.98838451 20.39216754 18.9375 22.0625 C19.62134766 22.34416016 20.30519531 22.62582031 21.00976562 22.91601562 C22.67613946 23.6035405 24.33850727 24.30076175 26 25 C22.13947988 26.47112053 19.57561604 25.47025988 15.75 24.1875 C11.95235392 22.944401 8.21075671 21.75479005 4.3125 20.875 C1 20 1 20 -1 18 C-1.17179052 15.10867823 -1.2322947 12.32557935 -1.1875 9.4375 C-1.18685547 8.64408203 -1.18621094 7.85066406 -1.18554688 7.03320312 C-1.14025522 1.14025522 -1.14025522 1.14025522 0 0 Z " fill="#C5FAFB" transform="translate(58,102)"/>
<path d="M0 0 C0.33 0 0.66 0 1 0 C1.49571837 6.32040918 1.18163619 9.05806632 -3 14 C-3.63385579 16.69769023 -3.81153584 19.22015366 -4 22 C2.93 22.495 2.93 22.495 10 23 C10 21.35 10 19.7 10 18 C10.95939668 16.30963442 11.96642853 14.64605826 13 13 C14.09319126 10.36058327 15.04147955 7.69298602 16 5 C16.66 5 17.32 5 18 5 C17.4253379 9.78642607 16.01754357 13.53788787 13.9375 17.875 C13.38964844 19.02742188 12.84179688 20.17984375 12.27734375 21.3671875 C11.85582031 22.23601562 11.43429688 23.10484375 11 24 C8.20807795 24.05380578 5.4171859 24.09357669 2.625 24.125 C1.8309375 24.14175781 1.036875 24.15851563 0.21875 24.17578125 C-1.85492015 24.19335473 -3.92883241 24.10335168 -6 24 C-6.66 23.34 -7.32 22.68 -8 22 C-5.60309494 14.55697903 -2.84737559 7.28162848 0 0 Z " fill="#41EBE7" transform="translate(146,160)"/>
<path d="M0 0 C2.24679053 7.32227418 -1.95884594 14.44406952 -5 21 C-5.67834587 22.66194738 -6.35199575 24.32598903 -7 26 C-7.66 26 -8.32 26 -9 26 C-9.10957031 26.6290625 -9.21914062 27.258125 -9.33203125 27.90625 C-11.10568421 37.48109197 -14.52863572 45.37539221 -19 54 C-20 52 -20 52 -18.890625 48.5859375 C-18.35146269 47.17931108 -17.8042057 45.77576762 -17.25 44.375 C-16.98445312 43.68792969 -16.71890625 43.00085938 -16.4453125 42.29296875 C-15.90552101 40.89632377 -15.36275803 39.50082387 -14.81713867 38.10644531 C-14.00680498 36.0175421 -13.22125472 33.92076396 -12.44140625 31.8203125 C-11.26763382 28.67768113 -10.00753819 25.58462533 -8.6875 22.5 C-5.56871786 15.08338392 -2.78664834 7.54597558 0 0 Z " fill="#B9FDFD" transform="translate(180,124)"/>
<path d="M0 0 C0 0.66 0 1.32 0 2 C-3.96 3.32 -7.92 4.64 -12 6 C-12 9.3 -12 12.6 -12 16 C-10.68 16.33 -9.36 16.66 -8 17 C-8 16.34 -8 15.68 -8 15 C-3.71 14.34 0.58 13.68 5 13 C5 12.34 5 11.68 5 11 C6.65 11 8.3 11 10 11 C8.65515002 13.68969995 7.47256848 13.74401483 4.66796875 14.7265625 C3.78689453 15.0359375 2.90582031 15.3453125 1.99804688 15.6640625 C1.07056641 15.98117188 0.14308594 16.29828125 -0.8125 16.625 C-1.72837891 16.94984375 -2.64425781 17.2746875 -3.58789062 17.609375 C-7.66873662 19.02414754 -10.62517057 20 -15 20 C-15.13501894 17.56065775 -15.23403897 15.12875896 -15.3125 12.6875 C-15.35439453 11.99720703 -15.39628906 11.30691406 -15.43945312 10.59570312 C-15.48828125 8.57421875 -15.48828125 8.57421875 -15 5 C-10.64740612 1.43613119 -5.56832399 0 0 0 Z " fill="#3BEAE9" transform="translate(240,122)"/>
<path d="M0 0 C2 2 2 2 2.375 4.375 C1.88457253 7.80799226 0.66908277 8.86473378 -2 11 C-2.99 11.33 -3.98 11.66 -5 12 C-4.67 12.66 -4.34 13.32 -4 14 C-4.58265625 13.95359375 -5.1653125 13.9071875 -5.765625 13.859375 C-12.28468606 13.57237231 -17.27439398 14.84761875 -23.3359375 17.22265625 C-26.10471613 18.030555 -27.3434937 18.00091114 -30 17 C-29.29617187 16.76925781 -28.59234375 16.53851563 -27.8671875 16.30078125 C-20.85092925 13.98340091 -13.88540535 11.55405343 -6.93359375 9.05078125 C-4.96349668 8.34511399 -2.98527677 7.66175892 -1 7 C-0.67 6.34 -0.34 5.68 0 5 C-0.63808594 4.87882812 -1.27617187 4.75765625 -1.93359375 4.6328125 C-2.75988281 4.46523437 -3.58617187 4.29765625 -4.4375 4.125 C-5.26121094 3.96257812 -6.08492188 3.80015625 -6.93359375 3.6328125 C-7.61550781 3.42398438 -8.29742187 3.21515625 -9 3 C-9.33 2.34 -9.66 1.68 -10 1 C-8.37675914 0.77837671 -6.751279 0.57310197 -5.125 0.375 C-4.22007812 0.25898437 -3.31515625 0.14296875 -2.3828125 0.0234375 C-1.59648437 0.01570313 -0.81015625 0.00796875 0 0 Z " fill="#2AEFEB" transform="translate(270,104)"/>
<path d="M0 0 C5.17544057 0.68510617 9.89111781 2.14327728 14.8125 3.8125 C15.60769043 4.07949707 16.40288086 4.34649414 17.22216797 4.62158203 C22.63226449 6.46484991 27.84596556 8.51842786 33 11 C33 16.61 33 22.22 33 28 C31.35 28.33 29.7 28.66 28 29 C28.33 28.01 28.66 27.02 29 26 C29.66 26 30.32 26 31 26 C31 21.38 31 16.76 31 12 C28.03 11.34 25.06 10.68 22 10 C22 9.34 22 8.68 22 8 C16.555 7.505 16.555 7.505 11 7 C11 6.01 11 5.02 11 4 C9.9275 3.896875 8.855 3.79375 7.75 3.6875 C4.14179128 3.02599507 2.63604977 2.42516579 0 0 Z " fill="#38E9E2" transform="translate(260,91)"/>
<path d="M0 0 C-2.10171867 0.8394882 -4.20646625 1.67139656 -6.3125 2.5 C-7.48425781 2.9640625 -8.65601562 3.428125 -9.86328125 3.90625 C-13 5 -13 5 -16 5 C-16 5.66 -16 6.32 -16 7 C-14.3603125 7.37125 -14.3603125 7.37125 -12.6875 7.75 C-6.22197654 9.36638086 0.43232099 11.288214 6 15 C-2.46820195 14.50187047 -10.92772776 11.71484816 -18 7 C-18.1875 4.375 -18.1875 4.375 -18 2 C-19.32 2 -20.64 2 -22 2 C-22 1.34 -22 0.68 -22 0 C-20.80503906 0.14308594 -20.80503906 0.14308594 -19.5859375 0.2890625 C-12.96180542 0.98209822 -5.90987723 -1.80301339 0 0 Z " fill="#27EEEA" transform="translate(98,104)"/>
<path d="M0 0 C-2.59364954 2.59364954 -4.86056349 2.9891059 -8.375 4 C-10.5911155 4.64032231 -12.80046984 5.30483985 -15 6 C-15.78117188 6.21398437 -16.56234375 6.42796875 -17.3671875 6.6484375 C-19.3921643 8.02713497 -19.3921643 8.02713497 -19.609375 11.4765625 C-19.67581781 12.858573 -19.7219252 14.2416781 -19.75 15.625 C-19.79447266 16.68460938 -19.79447266 16.68460938 -19.83984375 17.765625 C-19.91055357 19.50980047 -19.95754035 21.25490827 -20 23 C-15.545 22.01 -15.545 22.01 -11 21 C-12.5625 23.0625 -12.5625 23.0625 -15 25 C-17.31 24.67 -19.62 24.34 -22 24 C-22 18.06 -22 12.12 -22 6 C-20.35 6 -18.7 6 -17 6 C-17 5.34 -17 4.68 -17 4 C-5.47835991 -0.59225513 -5.47835991 -0.59225513 0 0 Z " fill="#D7FEFE" transform="translate(245,119)"/>
<path d="M0 0 C1.97119141 -0.34057617 1.97119141 -0.34057617 4.3515625 -0.29296875 C5.20234375 -0.28330078 6.053125 -0.27363281 6.9296875 -0.26367188 C7.81914062 -0.23853516 8.70859375 -0.21339844 9.625 -0.1875 C10.97078125 -0.16719727 10.97078125 -0.16719727 12.34375 -0.14648438 C14.56309789 -0.11106925 16.78125188 -0.06168461 19 0 C18.38550003 3.33822957 17.65439171 6.02209492 16 9 C15 6 15 6 16 2 C13.03 2 10.06 2 7 2 C7 3.32 7 4.64 7 6 C6.34 6 5.68 6 5 6 C5 4.68 5 3.36 5 2 C4.01 2.33 3.02 2.66 2 3 C1.26676204 5.01508358 1.26676204 5.01508358 1 7 C0.01 7 -0.98 7 -2 7 C-2 8.65 -2 10.3 -2 12 C-2.66 12 -3.32 12 -4 12 C-4.33 13.65 -4.66 15.3 -5 17 C-6.24546405 14.50907189 -5.7767578 13.58919267 -5 11 C-4.34 11 -3.68 11 -3 11 C-2.87625 9.741875 -2.7525 8.48375 -2.625 7.1875 C-2.30131941 3.89674737 -1.93395001 2.90092502 0 0 Z " fill="#30EAE8" transform="translate(195,37)"/>
<path d="M0 0 C2.47715225 7.14691898 -2.10630709 15.45773777 -5 22 C-5.3490252 23.28751517 -5.68263637 24.57931709 -6 25.875 C-6.33 26.90625 -6.66 27.9375 -7 29 C-7.99 29.33 -8.98 29.66 -10 30 C-10.12375 30.721875 -10.2475 31.44375 -10.375 32.1875 C-10.9904931 34.95721894 -11.88444374 37.3970354 -13 40 C-14.27264954 36.18205138 -13.50387752 35.11730031 -12 31.4375 C-11.53980469 30.29023437 -11.07960937 29.14296875 -10.60546875 27.9609375 C-10.34942871 27.33155273 -10.09338867 26.70216797 -9.82958984 26.05371094 C-8.28800737 22.23740965 -6.8045908 18.39835133 -5.3125 14.5625 C-5.01537109 13.80573975 -4.71824219 13.04897949 -4.41210938 12.26928711 C-2.82570306 8.21199001 -1.33482879 4.14914761 0 0 Z " fill="#2CEEE8" transform="translate(187,56)"/>
<path d="M0 0 C1.32 0 2.64 0 4 0 C4 0.66 4 1.32 4 2 C3.01 2 2.02 2 1 2 C1 6.62 1 11.24 1 16 C2.505625 16.2475 4.01125 16.495 5.5625 16.75 C8.9661029 17.42018904 11.67740957 18.16715955 14.625 20 C18.4849388 22.28737114 21.63797713 23.0816794 26 24 C26 24.66 26 25.32 26 26 C26.66 26.33 27.32 26.66 28 27 C22.93871431 26.36535603 18.58395471 24.85213061 13.875 23 C8.02918856 20.71743229 8.02918856 20.71743229 2 19 C2 18.34 2 17.68 2 17 C1.34 17 0.68 17 0 17 C0 11.39 0 5.78 0 0 Z " fill="#36E8E2" transform="translate(60,101)"/>
<path d="M0 0 C0.66 0 1.32 0 2 0 C0.54883447 6.42873847 -1.55011363 12.42538384 -3.9375 18.5625 C-4.28490234 19.46935547 -4.63230469 20.37621094 -4.99023438 21.31054688 C-6.89374007 26.25392606 -8.87644811 31.1471181 -11 36 C-11.33 36 -11.66 36 -12 36 C-10.88767123 26.46575342 -10.88767123 26.46575342 -10 24 C-9.34 23.67 -8.68 23.34 -8 23 C-7.59270772 20.67843403 -7.25561323 18.3431213 -7 16 C-6.34 16 -5.68 16 -5 16 C-5 13.69 -5 11.38 -5 9 C-4.34 9 -3.68 9 -3 9 C-3 8.01 -3 7.02 -3 6 C-2.34 5.67 -1.68 5.34 -1 5 C-0.34444881 2.47266765 -0.34444881 2.47266765 0 0 Z " fill="#B9FEFC" transform="translate(182,64)"/>
<path d="M0 0 C7.875 1.125 7.875 1.125 12 3 C8.42355152 4.2380014 5.66305234 3.74926071 2 3 C2 5.97 2 8.94 2 12 C2.66 12 3.32 12 4 12 C4 12.99 4 13.98 4 15 C5.1446875 15.433125 5.1446875 15.433125 6.3125 15.875 C9 17 9 17 12 19 C7.51311093 18.4721307 4.26272499 17.70509 0 16 C0 10.72 0 5.44 0 0 Z " fill="#30EDE9" transform="translate(225,78)"/>
<path d="M0 0 C3.62528568 -0.20140476 5.86501708 0.14223235 9 2 C8.67 2.99 8.34 3.98 8 5 C6.03125 5.80859375 6.03125 5.80859375 3.5 6.4375 C-0.97252538 7.64559594 -5.01057823 9.23897212 -9.1875 11.23046875 C-11 12 -11 12 -13 12 C-12 9 -12 9 -10.15234375 8.05078125 C-9.05599609 7.68533203 -9.05599609 7.68533203 -7.9375 7.3125 C-7.20402344 7.06113281 -6.47054687 6.80976562 -5.71484375 6.55078125 C-4.86599609 6.27814453 -4.86599609 6.27814453 -4 6 C-4.33 5.01 -4.66 4.02 -5 3 C-2.69 3 -0.38 3 2 3 C1.34 2.01 0.68 1.02 0 0 Z " fill="#E0FDFC" transform="translate(261,107)"/>
<path d="M0 0 C0.33 0 0.66 0 1 0 C1.22114415 2.79119779 1.42743301 5.5821212 1.625 8.375 C1.68945312 9.1690625 1.75390625 9.963125 1.8203125 10.78125 C1.96058587 12.85028224 1.98758237 14.92625536 2 17 C-0.36300349 19.36300349 -1.5798498 19.51433444 -4.8125 20.125 C-5.66457031 20.29257813 -6.51664063 20.46015625 -7.39453125 20.6328125 C-9.96843811 20.995552 -12.40461588 21.06523407 -15 21 C-15.33 21.99 -15.66 22.98 -16 24 C-18.64 24 -21.28 24 -24 24 C-20.3514427 21.56762847 -16.67882421 20.31968809 -12.5625 18.875 C-11.4168457 18.45927734 -11.4168457 18.45927734 -10.24804688 18.03515625 C-9.13719727 17.64263672 -9.13719727 17.64263672 -8.00390625 17.2421875 C-7.33174072 17.0035498 -6.6595752 16.76491211 -5.96704102 16.51904297 C-4 16 -4 16 0 16 C0 10.72 0 5.44 0 0 Z " fill="#CDFDFD" transform="translate(128,78)"/>
<path d="M0 0 C5.85518704 0.98357885 10.74055493 2.14160594 16 5 C18.64675121 6.06256436 21.31764481 7.02880243 24 8 C24 13.28 24 18.56 24 24 C19 23 19 23 16 21 C18.31 21.33 20.62 21.66 23 22 C23 17.71 23 13.42 23 9 C21.081875 8.525625 19.16375 8.05125 17.1875 7.5625 C14.07674246 6.79317287 11.04046027 6.01348676 8 5 C8 4.34 8 3.68 8 3 C6.865625 2.87625 5.73125 2.7525 4.5625 2.625 C3.386875 2.41875 2.21125 2.2125 1 2 C0.67 1.34 0.34 0.68 0 0 Z " fill="#3FEDE7" transform="translate(104,119)"/>
<path d="M0 0 C0.99 0.33 1.98 0.66 3 1 C3.33 6.61 3.66 12.22 4 18 C-1.61276379 21.36765828 -2.88767983 21.31079594 -9 21 C-6 19 -6 19 1 18 C0.67 12.06 0.34 6.12 0 0 Z " fill="#BFFDFC" transform="translate(292,101)"/>
<path d="M0 0 C-0.33 0.66 -0.66 1.32 -1 2 C1.31 2 3.62 2 6 2 C6 2.66 6 3.32 6 4 C5.34 4 4.68 4 4 4 C4 4.66 4 5.32 4 6 C6.97 6.33 9.94 6.66 13 7 C13 7.99 13 8.98 13 10 C5.74839665 8.180206 -1.12380756 5.93841629 -8 3 C-8 2.34 -8 1.68 -8 1 C-2.25 -1.125 -2.25 -1.125 0 0 Z " fill="#DAFEFC" transform="translate(90,108)"/>
<path d="M0 0 C1.98 0.66 3.96 1.32 6 2 C6 6.29 6 10.58 6 15 C3.03 14.67 0.06 14.34 -3 14 C-3 13.67 -3 13.34 -3 13 C-1.02 13 0.96 13 3 13 C3 10.69 3 8.38 3 6 C1.02 6 -0.96 6 -3 6 C-3 5.34 -3 4.68 -3 4 C-1.68 4 -0.36 4 1 4 C0.67 2.68 0.34 1.36 0 0 Z " fill="#0CF5F3" transform="translate(121,126)"/>
<path d="M0 0 C5.05485927 0.73094706 9.59903179 2.68380904 14.3125 4.5625 C15.56643555 5.0565332 15.56643555 5.0565332 16.84570312 5.56054688 C18.89863546 6.36998877 20.94997286 7.18323457 23 8 C18.71827684 9.34931697 15.7971135 8.13774845 11.75 6.5625 C11.1003125 6.31951172 10.450625 6.07652344 9.78125 5.82617188 C8.18383183 5.22714006 6.59139406 4.61485679 5 4 C5 4.66 5 5.32 5 6 C3.68 6 2.36 6 1 6 C0.67 4.02 0.34 2.04 0 0 Z " fill="#2AECED" transform="translate(237,82)"/>
<path d="M0 0 C1.2393394 2.92541741 0.98321373 4.04693064 -0.109375 7.1015625 C-0.65078125 8.26429688 -1.1921875 9.42703125 -1.75 10.625 C-4.3299009 16.30854109 -6.4138004 21.96131029 -8 28 C-8.66 28 -9.32 28 -10 28 C-10 29.32 -10 30.64 -10 32 C-10.66 32 -11.32 32 -12 32 C-10.125 24.375 -10.125 24.375 -9 21 C-8.34 21 -7.68 21 -7 21 C-6.89816406 19.99839844 -6.79632813 18.99679688 -6.69140625 17.96484375 C-6.10132162 13.83425135 -4.65946491 10.33803791 -2.9375 6.5625 C-2.65583984 5.92634766 -2.37417969 5.29019531 -2.08398438 4.63476562 C-1.39710188 3.08636949 -0.69965593 1.54266643 0 0 Z " fill="#4BEBE9" transform="translate(159,128)"/>
<path d="M0 0 C5.27315333 0.4452885 10.01770224 1.08373163 15 3 C15 2.34 15 1.68 15 1 C16.65 1 18.3 1 20 1 C20 1.66 20 2.32 20 3 C19.01 3 18.02 3 17 3 C17 3.99 17 4.98 17 6 C18.65 6 20.3 6 22 6 C22.33 6.66 22.66 7.32 23 8 C17.45044957 7.42389687 12.73970503 5.97901452 7.5625 3.9375 C6.83095703 3.65583984 6.09941406 3.37417969 5.34570312 3.08398438 C3.56126454 2.39586753 1.78026095 1.69885394 0 1 C0 0.67 0 0.34 0 0 Z " fill="#24EFE9" transform="translate(237,97)"/>
<path d="M0 0 C1.25127906 3.54667178 0.72285053 5.72253438 -0.4375 9.25 C-0.72496094 10.14203125 -1.01242188 11.0340625 -1.30859375 11.953125 C-1.53675781 12.62859375 -1.76492187 13.3040625 -2 14 C-2.66 14 -3.32 14 -4 14 C-4.103125 14.78375 -4.20625 15.5675 -4.3125 16.375 C-4.88840072 19.41156744 -5.55896366 22.33460822 -6.375 25.3125 C-6.60960937 26.17488281 -6.84421875 27.03726563 -7.0859375 27.92578125 C-7.38757813 28.61027344 -7.68921875 29.29476562 -8 30 C-8.99 30.33 -9.98 30.66 -11 31 C-9.38121437 25.12577031 -7.47373675 19.62446287 -4.91015625 14.09765625 C-3.63005938 11.14739007 -2.83489797 8.1010496 -2 5 C-1.35800351 3.32367583 -0.70105843 1.65249487 0 0 Z " fill="#BAFDFD" transform="translate(213,40)"/>
<path d="M0 0 C0.66 0 1.32 0 2 0 C0.16243766 8.4258956 -2.47122526 16.13348239 -6 24 C-6.33 24 -6.66 24 -7 24 C-6.67 20.37 -6.34 16.74 -6 13 C-5.34 13 -4.68 13 -4 13 C-3.79503906 12.22914062 -3.59007812 11.45828125 -3.37890625 10.6640625 C-3.10949219 9.66117188 -2.84007812 8.65828125 -2.5625 7.625 C-2.29566406 6.62726562 -2.02882812 5.62953125 -1.75390625 4.6015625 C-1 2 -1 2 0 0 Z " fill="#37EEE9" transform="translate(205,56)"/>
<path d="M0 0 C0 0.66 0 1.32 0 2 C-7.65839872 5.21158656 -14.70086684 7.34133864 -23 8 C-22 6 -22 6 -20.06640625 5.25390625 C-19.24011719 5.02574219 -18.41382813 4.79757813 -17.5625 4.5625 C-16.66660156 4.30984375 -15.77070313 4.0571875 -14.84765625 3.796875 C-13.90792969 3.53390625 -12.96820313 3.2709375 -12 3 C-10.16580144 2.44032776 -8.33242149 1.8779634 -6.5 1.3125 C-2.24615385 0 -2.24615385 0 0 0 Z " fill="#C1FDFE" transform="translate(272,127)"/>
<path d="M0 0 C0.66 0 1.32 0 2 0 C-3.23404255 19.23404255 -3.23404255 19.23404255 -8 24 C-7.21450457 18.18733381 -5.59317541 12.63122376 -4 7 C-3.34 7 -2.68 7 -2 7 C-1.855625 6.21625 -1.71125 5.4325 -1.5625 4.625 C-1 2 -1 2 0 0 Z " fill="#24EDE4" transform="translate(186,104)"/>
<path d="M0 0 C-1.2065625 0.6496875 -1.2065625 0.6496875 -2.4375 1.3125 C-5.27846354 2.80474002 -5.27846354 2.80474002 -6 6 C-8.31 5.67 -10.62 5.34 -13 5 C-13 5.66 -13 6.32 -13 7 C-15.64 7 -18.28 7 -21 7 C-18.02380583 4.02380583 -14.42456111 3.18190761 -10.5 1.8125 C-9.71496094 1.52697266 -8.92992188 1.24144531 -8.12109375 0.94726562 C-6.99380859 0.54991211 -6.99380859 0.54991211 -5.84375 0.14453125 C-5.15474609 -0.09934326 -4.46574219 -0.34321777 -3.75585938 -0.59448242 C-2 -1 -2 -1 0 0 Z " fill="#34EEEA" transform="translate(101,88)"/>
<path d="M0 0 C0 0.66 0 1.32 0 2 C-1.32 2 -2.64 2 -4 2 C-4 2.66 -4 3.32 -4 4 C-2.68 4.33 -1.36 4.66 0 5 C-1 6 -1 6 -3.5625 6.0625 C-4.7690625 6.0315625 -4.7690625 6.0315625 -6 6 C-6 5.34 -6 4.68 -6 4 C-6.99 4.495 -6.99 4.495 -8 5 C-9.54023996 5.06950541 -11.08334988 5.08452357 -12.625 5.0625 C-13.85089844 5.04896484 -13.85089844 5.04896484 -15.1015625 5.03515625 C-16.04128906 5.01775391 -16.04128906 5.01775391 -17 5 C-13.86768478 2.91178985 -11.56941553 2.24877798 -7.9375 1.375 C-6.87402344 1.11460938 -5.81054688 0.85421875 -4.71484375 0.5859375 C-2 0 -2 0 0 0 Z " fill="#22F1F2" transform="translate(118,82)"/>
<path d="M0 0 C0.33 0.99 0.66 1.98 1 3 C1.99 3 2.98 3 4 3 C4 2.34 4 1.68 4 1 C6.31 1 8.62 1 11 1 C11 1.66 11 2.32 11 3 C12.32 3 13.64 3 15 3 C15 3.66 15 4.32 15 5 C10.38 5 5.76 5 1 5 C0.67 3.35 0.34 1.7 0 0 Z " fill="#0DF3EE" transform="translate(141,178)"/>
<path d="M0 0 C1.63974449 5.22594827 0.30025662 10.12951823 -1.921875 15.03515625 C-3.61827861 18.10825663 -5.47090136 20.59339331 -8 23 C-6.16934766 14.80367019 -3.74899852 7.49799704 0 0 Z " fill="#A9FBFC" transform="translate(191,96)"/>
<path d="M0 0 C4.68803656 0.73048301 8.90885555 2.36636885 13.3125 4.0625 C14.42334961 4.48499023 14.42334961 4.48499023 15.55664062 4.91601562 C17.37242655 5.60718575 19.18639899 6.30311689 21 7 C21 7.33 21 7.66 21 8 C14.54168507 8.45321508 11.3415861 7.47389865 6 4 C4.00729869 2.98553388 2.00970734 1.98034504 0 1 C0 0.67 0 0.34 0 0 Z " fill="#C2FCFD" transform="translate(85,128)"/>
<path d="M0 0 C1.65 0 3.3 0 5 0 C3.62447369 2.75105261 1.77299917 2.9873283 -1.01733398 3.9543457 C-1.69223877 4.17566162 -2.36714355 4.39697754 -3.0625 4.625 C-3.7419165 4.85082764 -4.42133301 5.07665527 -5.12133789 5.30932617 C-9.98532056 6.85159294 -13.95167425 7.51513528 -19 7 C-18.67 6.34 -18.34 5.68 -18 5 C-16.35 5.33 -14.7 5.66 -13 6 C-13 5.34 -13 4.68 -13 4 C-8.71 3.34 -4.42 2.68 0 2 C0 1.34 0 0.68 0 0 Z " fill="#1CEEE7" transform="translate(245,133)"/>
<path d="M0 0 C1.4540625 0.0309375 1.4540625 0.0309375 2.9375 0.0625 C0.07027622 2.4342358 -2.35597221 3.64872685 -5.9375 4.625 C-8.83795956 5.43115714 -11.60969015 6.26516302 -14.4375 7.3125 C-17.25467279 8.11740651 -18.33664792 7.87445594 -21.0625 7.0625 C-19.84691406 6.64097656 -18.63132813 6.21945313 -17.37890625 5.78515625 C-15.79421808 5.23192192 -14.20958552 4.67852828 -12.625 4.125 C-11.82255859 3.84720703 -11.02011719 3.56941406 -10.19335938 3.28320312 C-9.42958984 3.01572266 -8.66582031 2.74824219 -7.87890625 2.47265625 C-7.17193604 2.22652588 -6.46496582 1.98039551 -5.73657227 1.72680664 C-1.46005835 0.02979711 -1.46005835 0.02979711 0 0 Z " fill="#39E7E8" transform="translate(271.0625,124.9375)"/>
<path d="M0 0 C6.93 0.495 6.93 0.495 14 1 C14 2.32 14 3.64 14 5 C15.32 5.33 16.64 5.66 18 6 C16 7 16 7 12.3046875 5.78515625 C10.82514342 5.21866415 9.34867819 4.64408111 7.875 4.0625 C7.12089844 3.77181641 6.36679687 3.48113281 5.58984375 3.18164062 C3.72391398 2.46125002 1.8616042 1.73149596 0 1 C0 0.67 0 0.34 0 0 Z " fill="#BAFCFC" transform="translate(264,91)"/>
<path d="M0 0 C1 3 1 3 1 7 C6.28 7.33 11.56 7.66 17 8 C17 8.33 17 8.66 17 9 C14.04142591 9.05379226 11.08382279 9.09357093 8.125 9.125 C6.86236328 9.15013672 6.86236328 9.15013672 5.57421875 9.17578125 C4.76855469 9.18222656 3.96289062 9.18867188 3.1328125 9.1953125 C2.38918457 9.20578613 1.64555664 9.21625977 0.87939453 9.22705078 C-1 9 -1 9 -3 7 C-2.75 3.9375 -2.75 3.9375 -2 1 C-1.34 0.67 -0.68 0.34 0 0 Z " fill="#BEFBFA" transform="translate(139,176)"/>
<path d="M0 0 C0.66 0 1.32 0 2 0 C0.71291613 5.54436129 -0.91864693 10.70201036 -3 16 C-3.66 16 -4.32 16 -5 16 C-5 13.69 -5 11.38 -5 9 C-4.34 9 -3.68 9 -3 9 C-3 8.01 -3 7.02 -3 6 C-2.34 5.67 -1.68 5.34 -1 5 C-0.34444881 2.47266765 -0.34444881 2.47266765 0 0 Z " fill="#C3FEFC" transform="translate(182,64)"/>
<path d="M0 0 C4.26621377 0.62042389 8.21949133 1.58675617 12.3125 2.9375 C13.36050781 3.27652344 14.40851563 3.61554688 15.48828125 3.96484375 C18 5 18 5 19 7 C12.43965793 6.01594869 6.09593191 4.66697021 0 2 C0 1.34 0 0.68 0 0 Z " fill="#B7FDFD" transform="translate(242,100)"/>
<path d="M0 0 C0.66 0.33 1.32 0.66 2 1 C2.625 3.0625 2.625 3.0625 3 5 C3.66 4.01 4.32 3.02 5 2 C5.66 2 6.32 2 7 2 C6.43628586 5.26954202 5.50037734 6.82575883 3 9 C1 7.8125 1 7.8125 -1 6 C-1.3125 3.375 -1.3125 3.375 -1 1 C-0.67 0.67 -0.34 0.34 0 0 Z " fill="#E7FDF7" transform="translate(135,168)"/>
<path d="M0 0 C0.33 0 0.66 0 1 0 C1 4.95 1 9.9 1 15 C3.97 14.34 6.94 13.68 10 13 C6.69298952 16.91941982 6.69298952 16.91941982 3.3125 17.3125 C1 17 1 17 0 16 C-0.07319621 13.30345146 -0.09242537 10.63308542 -0.0625 7.9375 C-0.05798828 7.17888672 -0.05347656 6.42027344 -0.04882812 5.63867188 C-0.0370068 3.75908129 -0.01907078 1.87953101 0 0 Z " fill="#9AF9F9" transform="translate(224,127)"/>
<path d="M0 0 C2.49523027 2.92918336 3.60563569 5.15494802 4 9 C3.67 9.99 3.34 10.98 3 12 C2.34 12 1.68 12 1 12 C1 10.68 1 9.36 1 8 C0.34 8 -0.32 8 -1 8 C-1.125 2.25 -1.125 2.25 0 0 Z " fill="#E5FEFD" transform="translate(182,120)"/>
<path d="M0 0 C-0.66 1.32 -1.32 2.64 -2 4 C-5.96 4 -9.92 4 -14 4 C-11.37350692 2.24900461 -9.38191413 1.30690675 -6.4375 0.3125 C-5.65246094 0.04050781 -4.86742187 -0.23148438 -4.05859375 -0.51171875 C-2 -1 -2 -1 0 0 Z " fill="#B7FCFB" transform="translate(248,136)"/>
<path d="M0 0 C1.16161779 2.86578759 0.9946154 4.01630163 0.00390625 7.015625 C-0.70958984 8.61664063 -0.70958984 8.61664063 -1.4375 10.25 C-1.91058594 11.32765625 -2.38367188 12.4053125 -2.87109375 13.515625 C-3.24363281 14.33546875 -3.61617187 15.1553125 -4 16 C-4.33 16 -4.66 16 -5 16 C-4.5587029 10.77411334 -4.07351958 5.8788696 -2 1 C-1.34 0.67 -0.68 0.34 0 0 Z " fill="#2BEEE8" transform="translate(193,88)"/>
<path d="M0 0 C6.00477279 0.64916463 11.400781 2.85795003 17 5 C17 5.66 17 6.32 17 7 C15.02 7 13.04 7 11 7 C11 6.01 11 5.02 11 4 C9.9275 3.896875 8.855 3.79375 7.75 3.6875 C4.14179128 3.02599507 2.63604977 2.42516579 0 0 Z " fill="#2DEBED" transform="translate(260,91)"/>
<path d="M0 0 C0 0.66 0 1.32 0 2 C-0.56589844 2.20496094 -1.13179687 2.40992187 -1.71484375 2.62109375 C-2.44832031 2.89050781 -3.18179688 3.15992187 -3.9375 3.4375 C-4.66839844 3.70433594 -5.39929688 3.97117187 -6.15234375 4.24609375 C-7.98305678 4.85386948 -7.98305678 4.85386948 -9 6 C-11.33297433 6.04092937 -13.66705225 6.04241723 -16 6 C-13.63224279 3.63224279 -11.70288662 3.00103504 -8.5625 1.875 C-7.59441406 1.52179688 -6.62632813 1.16859375 -5.62890625 0.8046875 C-3 0 -3 0 0 0 Z " fill="#39ECE5" transform="translate(80,95)"/>
<path d="M0 0 C-3.22791555 2.1519437 -4.28400809 2.20086443 -8 2 C-8.33 2.99 -8.66 3.98 -9 5 C-11.64 5 -14.28 5 -17 5 C-13.97546033 2.98364022 -11.36924652 1.96753498 -7.9375 0.8125 C-6.87402344 0.44769531 -5.81054688 0.08289063 -4.71484375 -0.29296875 C-2 -1 -2 -1 0 0 Z " fill="#A7FDFB" transform="translate(121,97)"/>
<path d="M0 0 C0.33 1.32 0.66 2.64 1 4 C1.99 4 2.98 4 4 4 C4.33 5.65 4.66 7.3 5 9 C4.01 9.495 4.01 9.495 3 10 C3 9.34 3 8.68 3 8 C1.68 8 0.36 8 -1 8 C-2 6 -2 6 -1.0625 2.875 C-0.5365625 1.451875 -0.5365625 1.451875 0 0 Z " fill="#E6FEF8" transform="translate(201,72)"/>
<path d="M0 0 C1.65 0 3.3 0 5 0 C4.67 0.99 4.34 1.98 4 3 C4.66 3.33 5.32 3.66 6 4 C6 4.99 6 5.98 6 7 C4.35 6.67 2.7 6.34 1 6 C0.67 4.02 0.34 2.04 0 0 Z " fill="#16F2FE" transform="translate(238,126)"/>
<path d="M0 0 C0 1.65 0 3.3 0 5 C-5.75 4.25 -5.75 4.25 -8 2 C-4.91190305 0.23537317 -3.76687864 0 0 0 Z " fill="#02FCEE" transform="translate(272,114)"/>
<path d="M0 0 C1.49008836 4.47026507 -0.23335529 7.76311182 -2 12 C-3.6875 14.5625 -3.6875 14.5625 -5 16 C-4.49228528 10.03435204 -2.61407872 5.36190101 0 0 Z " fill="#2EEBE4" transform="translate(177,128)"/>
<path d="M0 0 C1 2 1 2 0.22265625 4.6015625 C-0.16019531 5.59929687 -0.54304687 6.59703125 -0.9375 7.625 C-1.50791016 9.12933594 -1.50791016 9.12933594 -2.08984375 10.6640625 C-2.39019531 11.43492188 -2.69054687 12.20578125 -3 13 C-3.33 13 -3.66 13 -4 13 C-4.17673419 8.4932782 -4.13551182 5.03374456 -2 1 C-1.34 0.67 -0.68 0.34 0 0 Z " fill="#CDFDFD" transform="translate(163,115)"/>
<path d="M0 0 C3.37462715 0.54723683 5.08235 1.0549 8 3 C7.34 3.66 6.68 4.32 6 5 C4.68 5 3.36 5 2 5 C1.34 3.35 0.68 1.7 0 0 Z " fill="#0EF7F7" transform="translate(100,119)"/>
<path d="M0 0 C1.45606519 4.52092968 0.27032841 7.51648796 -1 12 C-1.66 12 -2.32 12 -3 12 C-3.33 12.66 -3.66 13.32 -4 14 C-3.36843005 8.94744036 -1.86540627 4.70406799 0 0 Z " fill="#44EDE6" transform="translate(187,56)"/>
<path d="M0 0 C0.66 0 1.32 0 2 0 C2.36716379 4.28357759 1.45701181 6.50348319 -1 10 C-1.66 10.66 -2.32 11.32 -3 12 C-2.40075776 7.80530429 -1.42500059 3.99000166 0 0 Z " fill="#AEFCFA" transform="translate(197,80)"/>
<path d="M0 0 C-1.60149886 0.67305018 -3.20631029 1.33822227 -4.8125 2 C-6.15248047 2.556875 -6.15248047 2.556875 -7.51953125 3.125 C-10 4 -10 4 -13 4 C-13 3.34 -13 2.68 -13 2 C-11.39935157 1.46845258 -9.79431126 0.95011647 -8.1875 0.4375 C-7.29417969 0.14746094 -6.40085937 -0.14257812 -5.48046875 -0.44140625 C-3 -1 -3 -1 0 0 Z " fill="#C8FEFE" transform="translate(125,78)"/>
<path d="M0 0 C1.45606519 4.52092968 0.27032841 7.51648796 -1 12 C-1.66 11.01 -2.32 10.02 -3 9 C-2.5390625 6.73828125 -2.5390625 6.73828125 -1.625 4.3125 C-1.32851562 3.50425781 -1.03203125 2.69601563 -0.7265625 1.86328125 C-0.48679688 1.24839844 -0.24703125 0.63351563 0 0 Z " fill="#ADFBFA" transform="translate(180,124)"/>
<path d="M0 0 C0 0.99 0 1.98 0 3 C-1.41377782 3.36552803 -2.83120576 3.71695495 -4.25 4.0625 C-5.03890625 4.25972656 -5.8278125 4.45695312 -6.640625 4.66015625 C-9.10394822 5.01497267 -10.65604132 4.76877544 -13 4 C-11.2097939 3.32942113 -9.41778511 2.6636531 -7.625 2 C-6.62726563 1.62875 -5.62953125 1.2575 -4.6015625 0.875 C-2 0 -2 0 0 0 Z " fill="#AAFBFC" transform="translate(103,102)"/>
<path d="M0 0 C4.50066475 1.06795435 8.7494534 2.14038586 13 4 C13 4.33 13 4.66 13 5 C10.125 5.125 10.125 5.125 7 5 C6.34 4.34 5.68 3.68 5 3 C3.35008418 2.29289322 1.68437744 1.62056011 0 1 C0 0.67 0 0.34 0 0 Z " fill="#BAFCFD" transform="translate(112,138)"/>
<path d="M0 0 C0.99 0 1.98 0 3 0 C3 1.65 3 3.3 3 5 C0.03 4.67 -2.94 4.34 -6 4 C-6 3.67 -6 3.34 -6 3 C-4.02 3 -2.04 3 0 3 C0 2.01 0 1.02 0 0 Z " fill="#1AF0F2" transform="translate(124,136)"/>
<path d="M0 0 C3.3 0.33 6.6 0.66 10 1 C6.99382731 4.00617269 4.17618402 3.59585316 0 4 C0 2.68 0 1.36 0 0 Z " fill="#D6FAFD" transform="translate(56,98)"/>
<path d="M0 0 C-1.4562545 0.67119549 -2.91507867 1.33681807 -4.375 2 C-5.59316406 2.556875 -5.59316406 2.556875 -6.8359375 3.125 C-9 4 -9 4 -11 4 C-10.67 3.01 -10.34 2.02 -10 1 C-3.84210526 -1.28070175 -3.84210526 -1.28070175 0 0 Z " fill="#ADFEFC" transform="translate(259,115)"/>
<path d="M0 0 C3.63 0.33 7.26 0.66 11 1 C11 1.99 11 2.98 11 4 C7.37 3.01 3.74 2.02 0 1 C0 0.67 0 0.34 0 0 Z " fill="#A9FCFA" transform="translate(92,114)"/>
<path d="M0 0 C1.62723299 0.45034123 3.25173664 0.91055354 4.875 1.375 C5.77992187 1.63023438 6.68484375 1.88546875 7.6171875 2.1484375 C10 3 10 3 12 5 C4.61538462 4.50769231 4.61538462 4.50769231 1.5 1.9375 C1.005 1.298125 0.51 0.65875 0 0 Z " fill="#ADFEFD" transform="translate(72,123)"/>
<path d="M0 0 C6.4 -0.36923077 6.4 -0.36923077 9.4375 1.5 C9.953125 1.995 10.46875 2.49 11 3 C9.54077307 2.88590407 8.08259402 2.75834456 6.625 2.625 C5.40683594 2.52058594 5.40683594 2.52058594 4.1640625 2.4140625 C2 2 2 2 0 0 Z " fill="#22EEE6" transform="translate(64,119)"/>
<path d="M0 0 C0.66 0.33 1.32 0.66 2 1 C1.67 3.31 1.34 5.62 1 8 C0.01 8.33 -0.98 8.66 -2 9 C-1.34 6.03 -0.68 3.06 0 0 Z " fill="#F0FEF0" transform="translate(190,107)"/>
<path d="M0 0 C3.62528568 -0.20140476 5.86501708 0.14223235 9 2 C8.67 2.99 8.34 3.98 8 5 C7.34 5 6.68 5 6 5 C5.67 4.34 5.34 3.68 5 3 C3.35636866 2.27840576 1.68949614 1.60648579 0 1 C0 0.67 0 0.34 0 0 Z " fill="#99FDFD" transform="translate(261,107)"/>
<path d="M0 0 C2.64 0 5.28 0 8 0 C8 0.99 8 1.98 8 3 C5.6568787 2.74438677 3.32156597 2.40729228 1 2 C0.67 1.34 0.34 0.68 0 0 Z " fill="#B6FDFB" transform="translate(284,98)"/>
<path d="M0 0 C-1.125 1.5 -1.125 1.5 -3 3 C-6.1875 3.1875 -6.1875 3.1875 -9 3 C-7.14340032 -0.71319936 -3.69365381 -0.09982848 0 0 Z " fill="#E5FEFE" transform="translate(256,134)"/>
<path d="M0 0 C0.26218749 3.14624993 0.24754367 4.61837017 -1.5 7.3125 C-2.2425 8.1478125 -2.2425 8.1478125 -3 9 C-3 6.36 -3 3.72 -3 1 C-1 0 -1 0 0 0 Z " fill="#2FEBE2" transform="translate(210,47)"/>
<path d="M0 0 C0.99928333 2.698065 1.03624754 3.88010429 0.1875 6.6875 C-1 9 -1 9 -3 10 C-2.39009109 6.44219804 -1.4216319 3.3171411 0 0 Z " fill="#95F9FB" transform="translate(213,40)"/>
<path d="M0 0 C-2.55068845 2.35448165 -3.71017358 2.98327924 -7.25 3.1875 C-8.1575 3.125625 -9.065 3.06375 -10 3 C-6.68152292 -0.06320961 -4.44849969 -0.3033068 0 0 Z " fill="#42EFE8" transform="translate(274,125)"/>
<path d="M0 0 C1.98 0 3.96 0 6 0 C5.67 1.32 5.34 2.64 5 4 C3.0625 3.6875 3.0625 3.6875 1 3 C0.67 2.01 0.34 1.02 0 0 Z " fill="#F1FEEE" transform="translate(223,120)"/>
<path d="M0 0 C-1.75 2.0625 -1.75 2.0625 -4 4 C-6.25 3.75 -6.25 3.75 -8 3 C-8 2.34 -8 1.68 -8 1 C-2.25 -1.125 -2.25 -1.125 0 0 Z " fill="#96FDFD" transform="translate(90,108)"/>
<path d="M0 0 C0.33 0.66 0.66 1.32 1 2 C0.06421005 4.35981813 -0.93347808 6.69631264 -2 9 C-2.33 9 -2.66 9 -3 9 C-2.4140625 2.84765625 -2.4140625 2.84765625 -2 1 C-1.34 0.67 -0.68 0.34 0 0 Z " fill="#A7FAFB" transform="translate(173,91)"/>
<path d="M0 0 C0.99 0 1.98 0 3 0 C2.34 1.32 1.68 2.64 1 4 C-1.31 3.67 -3.62 3.34 -6 3 C-6 2.67 -6 2.34 -6 2 C-4.02 2 -2.04 2 0 2 C0 1.34 0 0.68 0 0 Z " fill="#F2FDF6" transform="translate(124,70)"/>
<path d="M0 0 C1.32 0 2.64 0 4 0 C3.34 2.31 2.68 4.62 2 7 C0 5 0 5 -0.125 2.375 C-0.08375 1.59125 -0.0425 0.8075 0 0 Z " fill="#FCF6ED" transform="translate(184,48)"/>
</svg>
